<svg clip-rule="evenodd" fill-rule="evenodd" stroke-linejoin="round" stroke-miterlimit="2" viewBox="0 0 3500 3500" xmlns="http://www.w3.org/2000/svg"><path d="m3400 500v2500c0 220.766-179.234 400-400 400h-2500c-220.766 0-400-179.234-400-400v-2500c0-220.766 179.234-400 400-400h2500c220.766 0 400 179.234 400 400z" fill="#50a2ff"/><g fill-rule="nonzero"><path d="m1226.605 2853.637c-78.124 74.538-141.011 159.992-201.13 247.74-38.832 56.677-75.026 115.149-115.908 170.424-5.71 7.72-11.306 15.891-21.759 19.592-4.397-10.867 1.321-18.469 4.98-26.022 25.675-52.999 56.223-103.324 85.248-154.488 33.648-59.314 67.277-118.617 99.278-178.876 22.746-42.83 32.521-88.516 39.166-135.559 15.377-108.868 10.559-218.169 5.546-327.3-3.32-72.26-7.587-144.485-7.27-216.81.46-105.048 12.928-208.537 45.452-308.963 1.694-5.23 1.684-11.341 8.917-16.614 10.126 22.291 13.839 45.597 19.234 68.238 5.534 23.228 9.584 46.809 15.215 74.881 3.363-40.169 6.658-75.738 9.26-111.358 6.493-88.881 27.544-174.685 57.089-258.271 56.764-160.593 138.625-306.959 250.377-436.32 64.01-74.096 132.805-143.8 196.989-217.707 7.363-8.479 12.789-19.074 27.036-26.326 15.865 69.732 31.44 138.186 47.713 209.709 2.42-5.721 4.312-8.936 5.172-12.408 37.39-150.91 119.902-273.008 236.918-373.568 63.148-54.268 129.478-104.722 189.703-162.534 88.943-85.378 139.545-189.147 154.563-310.783 5.947-48.167 4.473-96.663 3.995-145.079-.059-5.982-2.013-12.388 1.913-17.987 5.571-1.352 7.508 3.135 10.132 5.987 93.049 101.105 166.922 214.065 213.107 344.221 26.745 75.37 44.656 152.649 51.669 232.386 22.995 261.447-40.373 502.554-171.803 727.469-12.315 21.074-27.271 40.6-40.878 60.927-2.771 4.139-7.301 7.427-7.24 15.956 128.972-50.755 256.013-101.946 356.361-199.793 7.266 5.138 4.145 9.282 2.912 12.748-51.441 144.667-119.865 280.294-214.089 402.214-75.418 97.587-161.115 185.262-254.032 266.201-73.118 63.692-150.11 122.245-229.651 177.567-3.302 2.296-6.451 4.813-8.742 9.112 60.202-18.708 120.404-37.415 180.994-56.243 2.24 10.05-4.445 13.133-8.064 17.678-103.374 129.823-239.841 213.677-388.824 280.365-95.526 42.76-193.636 79.193-290.075 119.712-132.773 55.784-253.617 130.04-359.47 229.883m-87.886 3.48c62.705-112.144 110.876-230.762 155.766-350.799 49.038-131.13 95.756-263.125 156.265-389.709 59.329-124.115 134.747-236.75 230.375-335.957 89.352-92.696 187.111-176.406 280.378-264.91 99.257-94.189 193.198-192.717 262.422-312.116 2.436-4.203 4.091-9.932 10.707-10.011.85 9.612.645 9.507-4.647 19.798-54.578 106.13-128.384 198.079-210.159 284.023-84.024 88.308-173.562 171.059-260.365 256.567-111.218 109.557-202.451 233.123-270.913 373.682-46.785 96.053-87.607 194.612-126.203 294.072-63.577 163.832-135.658 323.305-226.73 474.081-65.15 107.86-134.988 212.719-200.5 320.312-2.136 3.508-3.927 7.227-5.879 10.848 4.227-2.444 6.514-5.866 8.771-9.307 51.092-77.904 99.815-157.339 154.859-232.668 108.589-148.604 243.888-265.531 408.519-348.127 86.175-43.235 176.308-77.422 264.948-115.016 115.729-49.084 229.104-102.542 329.926-179.057 27.065-20.54 53.191-42.218 74.964-69.733-98.199 31.169-196.398 62.338-296.022 93.96 1.374-10.398 8.249-12.142 13.074-15.346 16.043-10.65 32.483-20.701 48.712-31.072 164.862-105.36 323.195-219.243 462.489-357.591 125.868-125.012 231.776-264.53 306.175-426.567 4.329-9.429 9.566-18.585 11.789-31.247-136.851 82.955-284.658 133.33-433.591 186.783 1.971-11.208 8.698-14.03 13.745-18.105 48.396-39.077 93.01-81.588 128.53-133.273 54.65-79.523 96.208-165.5 128.511-256.09 66.798-187.325 89.51-378.88 53.129-575.729-26.715-144.547-86.828-274.175-176.14-390.543-2.226-2.9-3.657-7.859-9.375-6.403-2.206 21.835-4.248 43.547-6.616 65.224-14.712 134.674-73.852 246.519-172.338 338.855-58.582 54.923-122.801 103.046-183.373 155.54-77.603 67.253-142.486 144.222-185.973 238.178-35.145 75.935-53.053 156.387-65.171 238.55-2.589 17.558-3.359 35.593-9.282 52.502-1.464.119-2.929.237-4.393.356-23.416-101.805-46.832-203.61-70.919-308.331-15.436 16.711-29.025 31.539-42.739 46.25-54.662 58.635-110.376 116.325-161.115 178.493-77.541 95.006-139.338 199.45-188.416 311.769-42.774 97.891-72.358 199.268-85.857 305.298-8.885 69.794-11.598 139.944-13.02 210.202-.424 20.945-2.278 41.862-3.476 62.791-36.305-52.601-52.41-111.582-63.976-172.397-13.075 53.852-19.797 108.055-21.837 162.603-3.29 87.958-.731 175.964 3.471 263.84 1.393 29.123 1.585 58.257 3.089 87.355 4.902 94.856 1.395 189.252-14.898 283.019-1.857 10.689-6.183 21.476-3.29 35.332 2.869-4.25 4.26-6.309 6.597-10.179z" fill="#ffffff"/><path d="m1352.172 1831.997v835.252c0 67.437 37.572 101.155 112.716 101.155h228.321v109.825h-994.209v-109.825h210.98c90.558 0 135.837-33.718 135.837-101.155v-1708.075c0-40.462-10.116-68.4-30.347-83.814s-55.394-23.121-105.49-23.121h-210.98v-109.825h1104.035c211.944 0 377.645 47.206 497.105 141.617 119.459 94.411 179.189 222.541 179.189 384.389 0 131.02-44.316 240.845-132.947 329.476-63.583 63.583-142.58 109.825-236.992 138.727-67.437 21.194-173.409 39.499-317.916 54.913 132.947 36.608 228.321 75.144 286.124 115.606 86.704 59.73 143.544 143.544 170.518 251.442 90.558 366.085 169.555 549.127 236.992 549.127 36.608 0 66.955-26.975 91.04-80.924s36.127-127.166 36.127-219.651h98.265c0 329.476-121.386 494.214-364.158 494.214-104.045 0-187.378-37.572-249.997-112.716-62.62-75.144-93.93-182.079-93.93-320.806 0-221.578-30.828-379.572-92.485-473.983-71.29-107.899-199.42-161.848-384.389-161.848zm0-875.712v765.888h254.333c188.823 0 326.104-34.2 411.845-102.6s128.611-179.671 128.611-333.812c0-186.896-50.096-310.209-150.287-369.938-71.29-42.389-203.273-63.583-395.95-63.583-86.704 0-136.8.963-150.287 2.89-65.51 9.634-98.265 43.352-98.265 101.155z" fill="#101828"/></g></svg>
