<?xml version="1.0" encoding="UTF-8" standalone="no"?><!DOCTYPE svg PUBLIC "-//W3C//DTD SVG 1.1//EN" "http://www.w3.org/Graphics/SVG/1.1/DTD/svg11.dtd"><svg width="100%" height="100%" viewBox="0 0 14584 14584" version="1.1" xmlns="http://www.w3.org/2000/svg" xmlns:xlink="http://www.w3.org/1999/xlink" xml:space="preserve" xmlns:serif="http://www.serif.com/" style="fill-rule:evenodd;clip-rule:evenodd;stroke-linejoin:round;stroke-miterlimit:2;"><path d="M14166.667,2083.333l0,10416.667c0,919.858 -746.808,1666.667 -1666.667,1666.667l-10416.667,0c-919.858,0 -1666.667,-746.808 -1666.667,-1666.667l-0,-10416.667c0,-919.858 746.808,-1666.667 1666.667,-1666.667l10416.667,-0c919.858,0 1666.667,746.808 1666.667,1666.667Z" style="fill:#50a2ff;fill-opacity:0.75;"/><g><path d="M5110.854,11890.154c-325.517,310.575 -587.546,666.633 -838.042,1032.25c-161.8,236.154 -312.608,479.788 -482.95,710.1c-23.792,32.167 -47.108,66.212 -90.663,81.633c-18.321,-45.279 5.504,-76.954 20.75,-108.425c106.979,-220.829 234.262,-430.517 355.2,-643.7c140.2,-247.142 280.321,-494.238 413.658,-745.317c94.775,-178.458 135.504,-368.817 163.192,-564.829c64.071,-453.617 43.996,-909.037 23.108,-1363.75c-13.833,-301.083 -31.613,-602.021 -30.292,-903.375c1.917,-437.7 53.867,-868.904 189.383,-1287.346c7.058,-21.792 7.017,-47.254 37.154,-69.225c42.192,92.879 57.662,189.988 80.142,284.325c23.058,96.783 39.933,195.037 63.396,312.004c14.013,-167.371 27.742,-315.575 38.583,-463.992c27.054,-370.337 114.767,-727.854 237.871,-1076.129c236.517,-669.138 577.604,-1278.996 1043.238,-1818c266.708,-308.733 553.354,-599.167 820.787,-907.113c30.679,-35.329 53.288,-79.475 112.65,-109.692c66.104,290.55 131,575.775 198.804,873.787c10.083,-23.837 17.967,-37.233 21.55,-51.7c155.792,-628.792 499.592,-1137.533 987.158,-1556.533c263.117,-226.117 539.492,-436.342 790.429,-677.225c370.596,-355.742 581.438,-788.112 644.013,-1294.929c24.779,-200.696 18.637,-402.763 16.646,-604.496c-0.246,-24.925 -8.388,-51.617 7.971,-74.946c23.213,-5.633 31.283,13.062 42.217,24.946c387.704,421.271 695.508,891.938 887.946,1434.254c111.438,314.042 186.067,636.037 215.288,968.275c95.812,1089.362 -168.221,2093.975 -715.846,3031.121c-51.312,87.808 -113.629,169.167 -170.325,253.863c-11.546,17.246 -30.421,30.946 -30.167,66.483c537.383,-211.479 1066.721,-424.775 1484.837,-832.471c30.275,21.408 17.271,38.675 12.133,53.117c-214.337,602.779 -499.438,1167.892 -892.038,1675.892c-314.242,406.613 -671.312,771.925 -1058.467,1109.171c-304.658,265.383 -625.458,509.354 -956.879,739.862c-13.758,9.567 -26.879,20.054 -36.425,37.967c250.842,-77.95 501.683,-155.896 754.142,-234.346c9.333,41.875 -18.521,54.721 -33.6,73.658c-430.725,540.929 -999.338,890.321 -1620.1,1168.188c-398.025,178.167 -806.817,329.971 -1208.646,498.8c-553.221,232.433 -1056.737,541.833 -1497.792,957.846m-366.192,14.5c261.271,-467.267 461.983,-961.508 649.025,-1461.663c204.325,-546.375 398.983,-1096.354 651.104,-1623.788c247.204,-517.146 561.446,-986.458 959.896,-1399.821c372.3,-386.233 779.629,-735.025 1168.242,-1103.792c413.571,-392.454 804.992,-802.988 1093.425,-1300.483c10.15,-17.512 17.046,-41.383 44.613,-41.712c3.542,40.05 2.688,39.612 -19.362,82.492c-227.408,442.208 -534.933,825.329 -875.663,1183.429c-350.1,367.95 -723.175,712.746 -1084.854,1069.029c-463.408,456.488 -843.546,971.346 -1128.804,1557.008c-194.937,400.221 -365.029,810.883 -525.846,1225.3c-264.904,682.633 -565.242,1347.104 -944.708,1975.338c-271.458,449.417 -562.45,886.329 -835.417,1334.633c-8.9,14.617 -16.363,30.112 -24.496,45.2c17.613,-10.183 27.142,-24.442 36.546,-38.779c212.883,-324.6 415.896,-655.579 645.246,-969.45c452.454,-619.183 1016.2,-1106.379 1702.163,-1450.529c359.062,-180.146 734.617,-322.592 1103.95,-479.233c482.204,-204.517 954.6,-427.258 1374.692,-746.071c112.771,-85.583 221.629,-175.908 312.35,-290.554c-409.163,129.871 -818.325,259.742 -1233.425,391.5c5.725,-43.325 34.371,-50.592 54.475,-63.942c66.846,-44.375 135.346,-86.254 202.967,-129.467c686.925,-439 1346.646,-913.512 1927.038,-1489.962c524.45,-520.883 965.733,-1102.208 1275.729,-1777.363c18.038,-39.288 39.858,-77.438 49.121,-130.196c-570.213,345.646 -1186.075,555.542 -1806.629,778.262c8.212,-46.7 36.242,-58.458 57.271,-75.438c201.65,-162.821 387.542,-339.95 535.542,-555.304c227.708,-331.346 400.867,-689.583 535.462,-1067.042c278.325,-780.521 372.958,-1578.667 221.371,-2398.871c-111.312,-602.279 -361.783,-1142.396 -733.917,-1627.263c-9.275,-12.083 -15.237,-32.746 -39.062,-26.679c-9.192,90.979 -17.7,181.446 -27.567,271.767c-61.3,561.142 -307.717,1027.163 -718.075,1411.896c-244.092,228.846 -511.671,429.358 -764.054,648.083c-323.346,280.221 -593.692,600.925 -774.887,992.408c-146.438,316.396 -221.054,651.612 -271.546,993.958c-10.787,73.158 -13.996,148.304 -38.675,218.758c-6.1,0.496 -12.204,0.988 -18.304,1.483c-97.567,-424.188 -195.133,-848.375 -295.496,-1284.713c-64.317,69.629 -120.938,131.413 -178.079,192.708c-227.758,244.312 -459.9,484.687 -671.312,743.721c-323.087,395.858 -580.575,831.042 -785.067,1299.038c-178.225,407.879 -301.492,830.283 -357.738,1272.075c-37.021,290.808 -48.325,583.1 -54.25,875.842c-1.767,87.271 -9.492,174.425 -14.483,261.629c-151.271,-219.171 -218.375,-464.925 -266.567,-718.321c-54.479,224.383 -82.488,450.229 -90.988,677.512c-13.708,366.492 -3.046,733.183 14.463,1099.333c5.804,121.346 6.604,242.737 12.871,363.979c20.425,395.233 5.812,788.55 -62.075,1179.246c-7.738,44.538 -25.762,89.483 -13.708,147.217c11.954,-17.708 17.75,-26.288 27.487,-42.413l0.008,0Z" style="fill:#3b82f6;fill-rule:nonzero;"/><path d="M5634.05,7633.321l-0,3480.217c0,280.987 156.55,421.479 469.65,421.479l951.337,0l0,457.604l-4142.538,0l0,-457.604l879.083,0c377.325,0 565.988,-140.492 565.988,-421.479l0,-7116.979c0,-168.592 -42.15,-285 -126.446,-349.225c-84.296,-64.225 -230.808,-96.337 -439.542,-96.337l-879.083,0l0,-457.604l4600.146,0c883.1,0 1573.521,196.692 2071.271,590.071c497.746,393.379 746.621,927.254 746.621,1601.621c0,545.917 -184.65,1003.521 -553.946,1372.817c-264.929,264.929 -594.083,457.604 -987.467,578.029c-280.987,88.308 -722.538,164.579 -1324.65,228.804c553.946,152.533 951.338,313.1 1192.183,481.692c361.267,248.875 598.1,598.1 710.492,1047.675c377.325,1525.354 706.479,2288.029 987.467,2288.029c152.533,0 278.979,-112.396 379.333,-337.183c100.354,-224.788 150.529,-529.858 150.529,-915.212l409.438,0c0,1372.817 -505.775,2059.225 -1517.325,2059.225c-433.521,0 -780.742,-156.55 -1041.654,-469.65c-260.917,-313.1 -391.375,-758.663 -391.375,-1336.692c0,-923.242 -128.45,-1581.55 -385.354,-1974.929c-297.042,-449.579 -830.917,-674.367 -1601.621,-674.367l-722.538,0Zm-0,-3648.8l0,3191.2l1059.721,0c786.762,0 1358.767,-142.5 1716.021,-427.5c357.254,-285 535.879,-748.629 535.879,-1390.883c0,-778.733 -208.733,-1292.538 -626.196,-1541.408c-297.042,-176.621 -846.971,-264.929 -1649.792,-264.929c-361.267,0 -570,4.012 -626.196,12.042c-272.958,40.142 -409.438,180.633 -409.438,421.479Z" style="fill:#1e3a5f;fill-rule:nonzero;"/></g></svg>
