<svg clip-rule="evenodd" fill-rule="evenodd" stroke-linejoin="round" stroke-miterlimit="2" viewBox="0 0 3500 3500" xmlns="http://www.w3.org/2000/svg"><path d="m3400 500v2500c0 220.766-179.234 400-400 400h-2500c-220.766 0-400-179.234-400-400v-2500c0-220.766 179.234-400 400-400h2500c220.766 0 400 179.234 400 400z" fill="#50a2ff"/><g fill-rule="nonzero"><path d="m1037.99 2738.066c-90.205 66.684-162.817 143.134-232.233 221.636-44.837 50.705-86.628 103.016-133.832 152.467-6.593 6.907-13.054 14.217-25.124 17.528-5.077-9.722 1.525-16.523 5.75-23.28 29.645-47.415 64.918-92.437 98.431-138.21 38.851-53.064 77.681-106.118 114.631-160.028 26.264-38.317 37.55-79.189 45.223-121.275 17.755-97.397 12.192-195.181 6.404-292.813-3.833-64.646-8.76-129.261-8.394-193.965.531-93.979 14.927-186.564 52.481-276.408 1.956-4.679 1.944-10.146 10.296-14.863 11.692 19.942 15.979 40.792 22.208 61.048 6.39 20.78 11.066 41.877 17.568 66.991 3.883-35.936 7.688-67.758 10.692-99.624 7.497-79.516 31.804-156.279 65.917-231.057 65.542-143.671 160.062-274.615 289.096-390.345 73.909-66.289 153.342-128.648 227.452-194.767 8.502-7.586 14.767-17.064 31.217-23.552 18.318 62.384 36.302 123.625 55.092 187.612 2.794-5.118 4.979-7.994 5.972-11.101 43.172-135.009 138.444-244.241 273.556-334.205 72.913-48.55 149.501-93.688 219.039-145.408 102.697-76.382 161.125-169.217 178.465-278.036 6.867-43.092 5.165-86.478 4.613-129.792-.068-5.352-2.324-11.083 2.209-16.092 6.433-1.21 8.669 2.805 11.699 5.356 107.438 90.452 192.735 191.509 246.063 307.951 30.881 67.428 51.562 136.564 59.659 207.9 26.551 233.899-46.616 449.6-198.371 650.816-14.219 18.853-31.488 36.322-47.2 54.507-3.2 3.703-8.43 6.644-8.36 14.275 148.917-45.407 295.604-91.204 411.47-178.741 8.39 4.597 4.786 8.304 3.362 11.405-59.396 129.424-138.401 250.76-247.197 359.833-87.081 87.304-186.03 165.741-293.316 238.152-84.425 56.981-173.324 109.364-265.165 158.857-3.813 2.054-7.449 4.306-10.094 8.152 69.512-16.737 139.024-33.473 208.984-50.317 2.586 8.991-5.132 11.749-9.311 15.815-119.36 116.144-276.931 191.162-448.953 250.823-110.298 38.254-223.581 70.848-334.933 107.098-153.305 49.906-292.837 116.338-415.06 205.66m-101.477 3.113c72.402-100.327 128.022-206.447 179.854-313.836 56.621-117.313 110.564-235.4 180.43-348.646 68.504-111.037 155.585-211.804 266.001-300.557 103.17-82.929 216.047-157.818 323.737-236.997 114.606-84.264 223.075-172.411 303.004-279.229 2.813-3.76 4.724-8.885 12.363-8.956.981 8.599.745 8.505-5.366 17.712-63.018 94.947-148.238 177.208-242.659 254.096-97.018 79.003-200.402 153.035-300.629 229.533-128.417 98.013-233.759 208.559-312.808 334.307-54.02 85.932-101.155 174.106-145.719 263.086-73.409 146.569-156.637 289.239-261.792 424.127-75.225 96.495-155.863 190.305-231.506 286.561-2.466 3.138-4.534 6.465-6.788 9.705 4.881-2.186 7.521-5.248 10.127-8.326 58.993-69.695 115.251-140.76 178.807-208.152 125.382-132.946 281.604-237.552 471.694-311.445 99.501-38.679 203.573-69.264 305.921-102.897 133.626-43.912 264.533-91.737 380.947-160.19 31.25-18.376 61.417-37.77 86.557-62.385-113.385 27.885-226.77 55.769-341.8 84.06 1.586-9.302 9.525-10.863 15.096-13.729 18.524-9.528 37.506-18.52 56.245-27.798 190.357-94.258 373.175-196.142 534.01-319.912 145.333-111.84 267.619-236.657 353.523-381.62 4.998-8.435 11.045-16.627 13.612-27.955-158.014 74.214-328.679 119.281-500.643 167.102 2.276-10.027 10.043-12.552 15.871-16.197 55.88-34.959 107.393-72.991 148.406-119.23 63.101-71.144 111.086-148.061 148.384-229.106 77.128-167.587 103.352-338.958 61.345-515.065-30.846-129.316-100.255-245.285-203.379-349.392-2.57-2.594-4.223-7.031-10.825-5.728-2.547 19.534-4.905 38.958-7.639 58.351-16.987 120.484-85.273 220.543-198.989 303.15-67.641 49.136-141.791 92.188-211.73 139.151-89.604 60.167-164.521 129.025-214.733 213.081-40.58 67.934-61.257 139.909-75.249 213.414-2.989 15.708-3.878 31.843-10.717 46.97-1.69.106-3.382.212-5.072.318-27.037-91.078-54.074-182.156-81.886-275.842-17.823 14.95-33.514 28.216-49.348 41.377-63.115 52.457-127.445 104.068-186.03 159.685-89.532 84.995-160.886 178.434-217.553 278.918-49.389 87.576-83.548 178.271-99.134 273.129-10.259 62.44-13.392 125.198-15.033 188.053-.49 18.738-2.63 37.451-4.014 56.175-41.919-47.058-60.515-99.825-73.869-154.232-15.097 48.178-22.858 96.669-25.214 145.47-3.799 78.69-.844 157.423 4.008 236.039 1.608 26.054 1.83 52.119 3.567 78.15 5.66 84.861 1.611 169.311-17.202 253.198-2.144 9.563-7.139 19.213-3.799 31.609 3.313-3.802 4.919-5.644 7.617-9.106h.002z" fill="#fff" stroke="#fff" stroke-width="70"/><path d="m1397.402 1760.115v835.252c0 67.437 37.572 101.155 112.716 101.155h228.321v109.825h-994.209v-109.825h210.98c90.558 0 135.837-33.718 135.837-101.155v-1708.075c0-40.462-10.116-68.4-30.347-83.814s-55.394-23.121-105.49-23.121h-210.98v-109.825h1104.035c211.944 0 377.645 47.206 497.105 141.617 119.459 94.411 179.189 222.541 179.189 384.389 0 131.02-44.316 240.845-132.947 329.476-63.583 63.583-142.58 109.825-236.992 138.727-67.437 21.194-173.409 39.499-317.916 54.913 132.947 36.608 228.321 75.144 286.124 115.606 86.704 59.73 143.544 143.544 170.518 251.442 90.558 366.085 169.555 549.127 236.992 549.127 36.608 0 66.955-26.975 91.04-80.924s36.127-127.166 36.127-219.651h98.265c0 329.476-121.386 494.214-364.158 494.214-104.045 0-187.378-37.572-249.997-112.716-62.62-75.144-93.93-182.079-93.93-320.806 0-221.578-30.828-379.572-92.485-473.983-71.29-107.899-199.42-161.848-384.389-161.848zm0-875.712v765.888h254.333c188.823 0 326.104-34.2 411.845-102.6s128.611-179.671 128.611-333.812c0-186.896-50.096-310.209-150.287-369.938-71.29-42.389-203.273-63.583-395.95-63.583-86.704 0-136.8.963-150.287 2.89-65.51 9.634-98.265 43.352-98.265 101.155z" fill="#101828"/></g></svg>