<?xml version="1.0" encoding="UTF-8" standalone="no"?><!DOCTYPE svg PUBLIC "-//W3C//DTD SVG 1.1//EN" "http://www.w3.org/Graphics/SVG/1.1/DTD/svg11.dtd"><svg width="100%" height="100%" viewBox="0 0 1200 630" version="1.1" xmlns="http://www.w3.org/2000/svg" xmlns:xlink="http://www.w3.org/1999/xlink" xml:space="preserve" xmlns:serif="http://www.serif.com/" style="fill-rule:evenodd;clip-rule:evenodd;stroke-linejoin:round;stroke-miterlimit:2;"><rect x="0" y="0" width="1200" height="630" style="fill:#f8fafc;"/><circle cx="100" cy="100" r="200" style="fill:#dbeafe;fill-opacity:0.5;"/><circle cx="1100" cy="530" r="250" style="fill:#dcfce7;fill-opacity:0.5;"/><g><path d="M693.814,61.935l0,142.143c0,12.552 -10.191,22.743 -22.743,22.743l-142.143,0c-12.552,0 -22.743,-10.191 -22.743,-22.743l0,-142.143c0,-12.552 10.191,-22.743 22.743,-22.743l142.143,0c12.552,0 22.743,10.191 22.743,22.743Z" style="fill:#50a2ff;"/><g><path d="M559.517,189.185c-5.129,3.791 -9.257,8.138 -13.204,12.602c-2.549,2.883 -4.925,5.857 -7.609,8.669c-0.375,0.393 -0.742,0.808 -1.428,0.997c-0.289,-0.553 0.087,-0.939 0.327,-1.324c1.686,-2.696 3.691,-5.256 5.597,-7.858c2.209,-3.017 4.417,-6.034 6.518,-9.099c1.493,-2.179 2.135,-4.502 2.571,-6.895c1.009,-5.538 0.693,-11.097 0.364,-16.649c-0.218,-3.676 -0.498,-7.349 -0.477,-11.028c0.03,-5.343 0.849,-10.607 2.984,-15.716c0.111,-0.266 0.111,-0.577 0.585,-0.845c0.665,1.134 0.909,2.319 1.263,3.471c0.363,1.181 0.629,2.381 0.999,3.809c0.221,-2.043 0.437,-3.853 0.608,-5.664c0.426,-4.521 1.808,-8.886 3.748,-13.137c3.727,-8.169 9.101,-15.614 16.437,-22.194c4.202,-3.769 8.719,-7.315 12.932,-11.074c0.483,-0.431 0.84,-0.97 1.775,-1.339c1.042,3.547 2.064,7.029 3.132,10.667c0.159,-0.291 0.283,-0.455 0.34,-0.631c2.455,-7.676 7.872,-13.887 15.554,-19.002c4.146,-2.76 8.5,-5.327 12.454,-8.267c5.839,-4.343 9.161,-9.621 10.147,-15.808c0.39,-2.45 0.294,-4.917 0.262,-7.38c-0.004,-0.304 -0.132,-0.63 0.126,-0.915c0.366,-0.069 0.493,0.159 0.665,0.305c6.109,5.143 10.958,10.889 13.99,17.509c1.756,3.834 2.932,7.765 3.392,11.821c1.51,13.299 -2.65,25.563 -11.279,37.004c-0.808,1.072 -1.79,2.065 -2.684,3.099c-0.182,0.211 -0.479,0.378 -0.475,0.812c8.467,-2.582 16.807,-5.186 23.395,-10.163c0.477,0.261 0.272,0.472 0.191,0.648c-3.377,7.359 -7.869,14.257 -14.055,20.459c-4.951,4.964 -10.577,9.424 -16.677,13.541c-4.8,3.24 -9.855,6.218 -15.077,9.032c-0.217,0.117 -0.424,0.245 -0.574,0.463c3.952,-0.952 7.905,-1.903 11.882,-2.861c0.147,0.511 -0.292,0.668 -0.529,0.899c-6.786,6.604 -15.746,10.869 -25.526,14.261c-6.271,2.175 -12.712,4.028 -19.043,6.089c-8.716,2.838 -16.65,6.615 -23.599,11.693m-5.77,0.177c4.117,-5.704 7.279,-11.738 10.226,-17.844c3.219,-6.67 6.286,-13.384 10.259,-19.823c3.895,-6.313 8.846,-12.043 15.124,-17.089c5.866,-4.715 12.284,-8.973 18.407,-13.475c6.516,-4.791 12.683,-9.803 17.228,-15.876c0.16,-0.214 0.269,-0.505 0.703,-0.509c0.056,0.489 0.042,0.484 -0.305,1.007c-3.583,5.398 -8.428,10.076 -13.797,14.447c-5.516,4.492 -11.394,8.701 -17.093,13.051c-7.301,5.573 -13.291,11.858 -17.785,19.008c-3.071,4.886 -5.751,9.899 -8.285,14.958c-4.174,8.333 -8.906,16.445 -14.885,24.115c-4.277,5.486 -8.862,10.82 -13.163,16.293c-0.14,0.178 -0.258,0.368 -0.386,0.552c0.278,-0.124 0.428,-0.298 0.576,-0.473c3.354,-3.963 6.553,-8.003 10.166,-11.835c7.129,-7.559 16.011,-13.507 26.819,-17.708c5.657,-2.199 11.575,-3.938 17.394,-5.85c7.598,-2.497 15.041,-5.216 21.66,-9.108c1.777,-1.045 3.492,-2.147 4.921,-3.547c-6.447,1.585 -12.893,3.171 -19.434,4.779c0.09,-0.529 0.542,-0.618 0.858,-0.781c1.053,-0.542 2.132,-1.053 3.198,-1.581c10.823,-5.359 21.218,-11.152 30.362,-18.189c8.263,-6.359 15.216,-13.456 20.1,-21.698c0.284,-0.48 0.628,-0.945 0.774,-1.589c-8.984,4.22 -18.688,6.782 -28.465,9.501c0.129,-0.57 0.571,-0.714 0.902,-0.921c3.177,-1.988 6.106,-4.15 8.438,-6.779c3.588,-4.045 6.316,-8.418 8.437,-13.026c4.385,-9.529 5.876,-19.272 3.488,-29.285c-1.754,-7.353 -5.7,-13.946 -11.564,-19.865c-0.146,-0.147 -0.24,-0.4 -0.615,-0.326c-0.145,1.111 -0.279,2.215 -0.434,3.318c-0.966,6.85 -4.848,12.539 -11.314,17.236c-3.846,2.794 -8.062,5.242 -12.038,7.912c-5.095,3.421 -9.354,7.336 -12.209,12.115c-2.307,3.863 -3.483,7.955 -4.278,12.134c-0.17,0.893 -0.22,1.811 -0.609,2.671c-0.096,0.006 -0.192,0.012 -0.288,0.018c-1.537,-5.178 -3.074,-10.357 -4.656,-15.684c-1.013,0.85 -1.906,1.604 -2.806,2.353c-3.589,2.983 -7.246,5.917 -10.577,9.079c-5.091,4.833 -9.148,10.145 -12.369,15.858c-2.808,4.979 -4.75,10.136 -5.636,15.529c-0.583,3.55 -0.761,7.118 -0.855,10.692c-0.028,1.065 -0.15,2.129 -0.228,3.194c-2.383,-2.676 -3.441,-5.676 -4.2,-8.769c-0.858,2.739 -1.3,5.496 -1.434,8.271c-0.216,4.474 -0.048,8.951 0.228,13.421c0.091,1.481 0.104,2.963 0.203,4.443c0.322,4.825 0.092,9.627 -0.978,14.396c-0.122,0.544 -0.406,1.092 -0.216,1.797c0.188,-0.216 0.28,-0.321 0.433,-0.518l0,0l-0,0Z" style="fill:#101828;fill-rule:nonzero;"/></g></g><text x="600" y="302" text-anchor="middle" style="font-family:'Helvetica-Bold', 'Helvetica';font-weight:700;font-size:64px;fill:#1e3a8a;">Readability.ch</text><text x="600" y="372" text-anchor="middle" style="font-family:'Helvetica';font-size:32px;fill:#4b5563;">Test di leggibilità gratuito</text><g><path d="M400,432l0,56c0,6.623 -5.377,12 -12,12l-176,0c-6.623,0 -12,-5.377 -12,-12l0,-56c0,-6.623 5.377,-12 12,-12l176,0c6.623,0 12,5.377 12,12Z" style="fill:#dbeafe;"/><text x="300" y="452" text-anchor="middle" style="font-family:'Helvetica';font-size:16px;fill:#1e40af;">GULPEASE</text><text x="300" y="474" text-anchor="middle" style="font-family:'Helvetica';font-size:14px;fill:#3b82f6;">Formula Italiana</text></g><g><path d="M620,432l0,56c0,6.623 -5.377,12 -12,12l-176,0c-6.623,0 -12,-5.377 -12,-12l0,-56c0,-6.623 5.377,-12 12,-12l176,0c6.623,0 12,5.377 12,12Z" style="fill:#dcfce7;"/><text x="520" y="452" text-anchor="middle" style="font-family:'Helvetica';font-size:16px;fill:#166534;">Privacy</text><text x="520" y="474" text-anchor="middle" style="font-family:'Helvetica';font-size:14px;fill:#22c55e;">100% nel browser</text></g><g><path d="M840,432l0,56c0,6.623 -5.377,12 -12,12l-176,0c-6.623,0 -12,-5.377 -12,-12l0,-56c0,-6.623 5.377,-12 12,-12l176,0c6.623,0 12,5.377 12,12Z" style="fill:#fef3c7;"/><text x="740" y="452" text-anchor="middle" style="font-family:'Helvetica';font-size:16px;fill:#92400e;">5 Indici</text><text x="740" y="474" text-anchor="middle" style="font-family:'Helvetica';font-size:14px;fill:#d97706;">Analisi completa</text></g><g><path d="M1060,432l0,56c0,6.623 -5.377,12 -12,12l-176,0c-6.623,0 -12,-5.377 -12,-12l0,-56c0,-6.623 5.377,-12 12,-12l176,0c6.623,0 12,5.377 12,12Z" style="fill:#ede9fe;"/><text x="960" y="452" text-anchor="middle" style="font-family:'Helvetica';font-size:16px;fill:#5b21b6;">Tempo reale</text><text x="960" y="474" text-anchor="middle" style="font-family:'Helvetica';font-size:14px;fill:#7c3aed;">Risultati immediati</text></g><text x="600" y="580" text-anchor="middle" style="font-family:'Helvetica';font-size:24px;fill:#6b7280;">readability.ch/it</text></svg>
