<svg width="1200" height="630" viewBox="0 0 1200 630" fill="none" xmlns="http://www.w3.org/2000/svg">
  <rect width="1200" height="630" fill="#f8fafc"/>

  <!-- Background decoration -->
  <circle cx="100" cy="100" r="200" fill="#dbeafe" opacity="0.5"/>
  <circle cx="1100" cy="530" r="250" fill="#dcfce7" opacity="0.5"/>

  <!-- Logo/Icon -->
  <g transform="translate(500, 120)">
    <circle cx="100" cy="80" r="70" fill="#2563eb" opacity="0.1"/>
    <path d="M70 60 Q100 40 130 60 Q120 90 100 110 Q80 90 70 60" fill="#2563eb"/>
    <path d="M100 110 L100 140" stroke="#2563eb" stroke-width="3" stroke-linecap="round"/>
  </g>

  <!-- Title -->
  <text x="600" y="280" text-anchor="middle" font-family="system-ui, -apple-system, sans-serif" font-size="64" font-weight="bold" fill="#1e3a8a">
    Readability.ch
  </text>

  <!-- Subtitle -->
  <text x="600" y="350" text-anchor="middle" font-family="system-ui, -apple-system, sans-serif" font-size="32" fill="#4b5563">
    Kostenloser Lesbarkeitstest für deutsche Texte
  </text>

  <!-- Features -->
  <g transform="translate(200, 420)">
    <rect x="0" y="0" width="200" height="80" rx="12" fill="#dbeafe"/>
    <text x="100" y="35" text-anchor="middle" font-family="system-ui, sans-serif" font-size="16" fill="#1e40af">Flesch-Amstad</text>
    <text x="100" y="58" text-anchor="middle" font-family="system-ui, sans-serif" font-size="14" fill="#3b82f6">Deutsche Formel</text>
  </g>

  <g transform="translate(420, 420)">
    <rect x="0" y="0" width="200" height="80" rx="12" fill="#dcfce7"/>
    <text x="100" y="35" text-anchor="middle" font-family="system-ui, sans-serif" font-size="16" fill="#166534">Datenschutz</text>
    <text x="100" y="58" text-anchor="middle" font-family="system-ui, sans-serif" font-size="14" fill="#22c55e">100% im Browser</text>
  </g>

  <g transform="translate(640, 420)">
    <rect x="0" y="0" width="200" height="80" rx="12" fill="#fef3c7"/>
    <text x="100" y="35" text-anchor="middle" font-family="system-ui, sans-serif" font-size="16" fill="#92400e">5 Indizes</text>
    <text x="100" y="58" text-anchor="middle" font-family="system-ui, sans-serif" font-size="14" fill="#d97706">Umfassende Analyse</text>
  </g>

  <g transform="translate(860, 420)">
    <rect x="0" y="0" width="200" height="80" rx="12" fill="#ede9fe"/>
    <text x="100" y="35" text-anchor="middle" font-family="system-ui, sans-serif" font-size="16" fill="#5b21b6">Echtzeit</text>
    <text x="100" y="58" text-anchor="middle" font-family="system-ui, sans-serif" font-size="14" fill="#7c3aed">Sofortige Ergebnisse</text>
  </g>

  <!-- URL -->
  <text x="600" y="580" text-anchor="middle" font-family="system-ui, sans-serif" font-size="24" fill="#6b7280">
    readability.ch
  </text>
</svg>
